<svg width="672" height="179" viewBox="0 0 672 179" fill="none" xmlns="http://www.w3.org/2000/svg">
<path d="M135.549 22.2478C141.446 22.2478 146.227 17.4794 146.227 11.5973C146.227 5.71518 141.446 0.946777 135.549 0.946777C129.652 0.946777 124.871 5.71518 124.871 11.5973C124.871 17.4794 129.652 22.2478 135.549 22.2478Z" fill="white"/>
<path d="M147.562 172.688C153.459 172.688 158.24 167.919 158.24 162.037C158.24 156.155 153.459 151.387 147.562 151.387C141.665 151.387 136.884 156.155 136.884 162.037C136.884 167.919 141.665 172.688 147.562 172.688Z" fill="white"/>
<path d="M138.604 48.8739C143.553 48.8739 147.565 44.8718 147.565 39.9351C147.565 34.9983 143.553 30.9962 138.604 30.9962C133.654 30.9962 129.642 34.9983 129.642 39.9351C129.642 44.8718 133.654 48.8739 138.604 48.8739Z" fill="white"/>
<path d="M162.437 52.2976C167.386 52.2976 171.399 48.2955 171.399 43.3588C171.399 38.422 167.386 34.4199 162.437 34.4199C157.487 34.4199 153.475 38.422 153.475 43.3588C153.475 48.2955 157.487 52.2976 162.437 52.2976Z" fill="white"/>
<path d="M135.553 71.5071C139.766 71.5071 143.18 68.1011 143.18 63.8996C143.18 59.698 139.766 56.292 135.553 56.292C131.341 56.292 127.926 59.698 127.926 63.8996C127.926 68.1011 131.341 71.5071 135.553 71.5071Z" fill="white"/>
<path d="M159.387 74.7404C163.599 74.7404 167.014 71.3344 167.014 67.1329C167.014 62.9314 163.599 59.5254 159.387 59.5254C155.174 59.5254 151.759 62.9314 151.759 67.1329C151.759 71.3344 155.174 74.7404 159.387 74.7404Z" fill="white"/>
<path d="M178.454 82.1588C182.667 82.1588 186.081 78.7528 186.081 74.5513C186.081 70.3498 182.667 66.9438 178.454 66.9438C174.242 66.9438 170.827 70.3498 170.827 74.5513C170.827 78.7528 174.242 82.1588 178.454 82.1588Z" fill="white"/>
<path d="M152.333 92.9976C156.019 92.9976 159.007 90.0174 159.007 86.341C159.007 82.6647 156.019 79.6844 152.333 79.6844C148.647 79.6844 145.659 82.6647 145.659 86.341C145.659 90.0174 148.647 92.9976 152.333 92.9976Z" fill="white"/>
<path d="M128.495 89.7643C132.18 89.7643 135.168 86.784 135.168 83.1077C135.168 79.4313 132.18 76.4511 128.495 76.4511C124.809 76.4511 121.821 79.4313 121.821 83.1077C121.821 86.784 124.809 89.7643 128.495 89.7643Z" fill="white"/>
<path d="M171.588 100.416C175.274 100.416 178.262 97.4358 178.262 93.7594C178.262 90.0831 175.274 87.1028 171.588 87.1028C167.902 87.1028 164.915 90.0831 164.915 93.7594C164.915 97.4358 167.902 100.416 171.588 100.416Z" fill="white"/>
<path d="M142.797 106.882C145.956 106.882 148.518 104.327 148.518 101.176C148.518 98.025 145.956 95.4705 142.797 95.4705C139.638 95.4705 137.077 98.025 137.077 101.176C137.077 104.327 139.638 106.882 142.797 106.882Z" fill="white"/>
<path d="M162.058 114.11C165.217 114.11 167.778 111.555 167.778 108.404C167.778 105.253 165.217 102.699 162.058 102.699C158.898 102.699 156.337 105.253 156.337 108.404C156.337 111.555 158.898 114.11 162.058 114.11Z" fill="white"/>
<path d="M119.152 103.456C122.311 103.456 124.872 100.901 124.872 97.75C124.872 94.5989 122.311 92.0444 119.152 92.0444C115.993 92.0444 113.431 94.5989 113.431 97.75C113.431 100.901 115.993 103.456 119.152 103.456Z" fill="white"/>
<path d="M132.308 116.203C134.94 116.203 137.075 114.074 137.075 111.448C137.075 108.822 134.94 106.693 132.308 106.693C129.675 106.693 127.541 108.822 127.541 111.448C127.541 114.074 129.675 116.203 132.308 116.203Z" fill="white"/>
<path d="M140.51 129.325C142.827 129.325 144.705 127.452 144.705 125.141C144.705 122.83 142.827 120.957 140.51 120.957C138.194 120.957 136.315 122.83 136.315 125.141C136.315 127.452 138.194 129.325 140.51 129.325Z" fill="white"/>
<path d="M130.404 131.988C132.3 131.988 133.837 130.456 133.837 128.565C133.837 126.674 132.3 125.142 130.404 125.142C128.509 125.142 126.972 126.674 126.972 128.565C126.972 130.456 128.509 131.988 130.404 131.988Z" fill="white"/>
<path d="M121.438 122.097C123.755 122.097 125.633 120.224 125.633 117.913C125.633 115.602 123.755 113.729 121.438 113.729C119.121 113.729 117.243 115.602 117.243 117.913C117.243 120.224 119.121 122.097 121.438 122.097Z" fill="white"/>
<path d="M108.474 112.969C111.107 112.969 113.241 110.841 113.241 108.215C113.241 105.589 111.107 103.46 108.474 103.46C105.842 103.46 103.707 105.589 103.707 108.215C103.707 110.841 105.842 112.969 108.474 112.969Z" fill="white"/>
<path d="M108.282 77.2097C110.914 77.2097 113.049 75.081 113.049 72.455C113.049 69.8291 110.914 67.7003 108.282 67.7003C105.649 67.7003 103.515 69.8291 103.515 72.455C103.515 75.081 105.649 77.2097 108.282 77.2097Z" fill="white"/>
<path d="M110.379 60.4753C112.696 60.4753 114.574 58.602 114.574 56.2911C114.574 53.9803 112.696 52.107 110.379 52.107C108.062 52.107 106.184 53.9803 106.184 56.2911C106.184 58.602 108.062 60.4753 110.379 60.4753Z" fill="white"/>
<path d="M114.96 46.7817C116.856 46.7817 118.393 45.249 118.393 43.3583C118.393 41.4676 116.856 39.9349 114.96 39.9349C113.065 39.9349 111.528 41.4676 111.528 43.3583C111.528 45.249 113.065 46.7817 114.96 46.7817Z" fill="white"/>
<path d="M106.948 40.3162C109.265 40.3162 111.143 38.4429 111.143 36.132C111.143 33.8212 109.265 31.9479 106.948 31.9479C104.631 31.9479 102.753 33.8212 102.753 36.132C102.753 38.4429 104.631 40.3162 106.948 40.3162Z" fill="white"/>
<path d="M151.375 123.426C154.008 123.426 156.142 121.297 156.142 118.671C156.142 116.045 154.008 113.917 151.375 113.917C148.743 113.917 146.608 116.045 146.608 118.671C146.608 121.297 148.743 123.426 151.375 123.426Z" fill="white"/>
<path d="M96.0806 34.8003C98.7133 34.8003 100.848 32.6715 100.848 30.0456C100.848 27.4196 98.7133 25.2909 96.0806 25.2909C93.4479 25.2909 91.3136 27.4196 91.3136 30.0456C91.3136 32.6715 93.4479 34.8003 96.0806 34.8003Z" fill="white"/>
<path d="M99.3236 54.9618C101.956 54.9618 104.091 52.833 104.091 50.207C104.091 47.5811 101.956 45.4523 99.3236 45.4523C96.6908 45.4523 94.5566 47.5811 94.5566 50.207C94.5566 52.833 96.6908 54.9618 99.3236 54.9618Z" fill="white"/>
<path d="M93.9837 74.17C97.143 74.17 99.7041 71.6155 99.7041 68.4644C99.7041 65.3132 97.143 62.7587 93.9837 62.7587C90.8245 62.7587 88.2634 65.3132 88.2634 68.4644C88.2634 71.6155 90.8245 74.17 93.9837 74.17Z" fill="white"/>
<path d="M76.6309 74.1685C80.3167 74.1685 83.3047 71.1882 83.3047 67.5119C83.3047 63.8356 80.3167 60.8553 76.6309 60.8553C72.9451 60.8553 69.9571 63.8356 69.9571 67.5119C69.9571 71.1882 72.9451 74.1685 76.6309 74.1685Z" fill="white"/>
<path d="M56.4205 78.7351C60.6329 78.7351 64.0477 75.3291 64.0477 71.1276C64.0477 66.9261 60.6329 63.5201 56.4205 63.5201C52.2081 63.5201 48.7933 66.9261 48.7933 71.1276C48.7933 75.3291 52.2081 78.7351 56.4205 78.7351Z" fill="white"/>
<path d="M34.3027 89.5751C39.2522 89.5751 43.2646 85.573 43.2646 80.6363C43.2646 75.6995 39.2522 71.6974 34.3027 71.6974C29.3531 71.6974 25.3407 75.6995 25.3407 80.6363C25.3407 85.573 29.3531 89.5751 34.3027 89.5751Z" fill="white"/>
<path d="M11.4193 107.833C17.3166 107.833 22.0973 103.064 22.0973 97.1824C22.0973 91.3002 17.3166 86.5318 11.4193 86.5318C5.52195 86.5318 0.741211 91.3002 0.741211 97.1824C0.741211 103.064 5.52195 107.833 11.4193 107.833Z" fill="white"/>
<path d="M25.3398 67.3223C30.2894 67.3223 34.3018 63.3203 34.3018 58.3835C34.3018 53.4467 30.2894 49.4446 25.3398 49.4446C20.3903 49.4446 16.3779 53.4467 16.3779 58.3835C16.3779 63.3203 20.3903 67.3223 25.3398 67.3223Z" fill="white"/>
<path d="M47.4577 56.4823C51.6701 56.4823 55.0849 53.0763 55.0849 48.8748C55.0849 44.6733 51.6701 41.2673 47.4577 41.2673C43.2454 41.2673 39.8305 44.6733 39.8305 48.8748C39.8305 53.0763 43.2454 56.4823 47.4577 56.4823Z" fill="white"/>
<path d="M44.2147 36.3209C48.4271 36.3209 51.8419 32.9149 51.8419 28.7134C51.8419 24.5118 48.4271 21.1058 44.2147 21.1058C40.0024 21.1058 36.5876 24.5118 36.5876 28.7134C36.5876 32.9149 40.0024 36.3209 44.2147 36.3209Z" fill="white"/>
<path d="M64.4299 31.7567C68.1157 31.7567 71.1037 28.7764 71.1037 25.1001C71.1037 21.4238 68.1157 18.4435 64.4299 18.4435C60.7441 18.4435 57.7561 21.4238 57.7561 25.1001C57.7561 28.7764 60.7441 31.7567 64.4299 31.7567Z" fill="white"/>
<path d="M81.778 31.7582C84.9373 31.7582 87.4984 29.2037 87.4984 26.0525C87.4984 22.9014 84.9373 20.3469 81.778 20.3469C78.6187 20.3469 76.0576 22.9014 76.0576 26.0525C76.0576 29.2037 78.6187 31.7582 81.778 31.7582Z" fill="white"/>
<path d="M85.021 51.9148C88.1803 51.9148 90.7414 49.3603 90.7414 46.2092C90.7414 43.058 88.1803 40.5035 85.021 40.5035C81.8617 40.5035 79.3006 43.058 79.3006 46.2092C79.3006 49.3603 81.8617 51.9148 85.021 51.9148Z" fill="white"/>
<path d="M67.6681 52.1085C71.3539 52.1085 74.3419 49.1282 74.3419 45.4519C74.3419 41.7756 71.3539 38.7953 67.6681 38.7953C63.9823 38.7953 60.9943 41.7756 60.9943 45.4519C60.9943 49.1282 63.9823 52.1085 67.6681 52.1085Z" fill="white"/>
<path d="M48.7898 102.698C50.6854 102.698 52.2221 101.165 52.2221 99.2746C52.2221 97.3839 50.6854 95.8512 48.7898 95.8512C46.8943 95.8512 45.3576 97.3839 45.3576 99.2746C45.3576 101.165 46.8943 102.698 48.7898 102.698Z" fill="white"/>
<path d="M62.5197 100.986C64.8365 100.986 66.7146 99.1128 66.7146 96.802C66.7146 94.4911 64.8365 92.6178 62.5197 92.6178C60.2029 92.6178 58.3247 94.4911 58.3247 96.802C58.3247 99.1128 60.2029 100.986 62.5197 100.986Z" fill="white"/>
<path d="M77.5816 95.2823C80.2143 95.2823 82.3486 93.1535 82.3486 90.5276C82.3486 87.9016 80.2143 85.7729 77.5816 85.7729C74.9488 85.7729 72.8146 87.9016 72.8146 90.5276C72.8146 93.1535 74.9488 95.2823 77.5816 95.2823Z" fill="white"/>
<path d="M81.2094 110.496C84.3687 110.496 86.9298 107.941 86.9298 104.79C86.9298 101.639 84.3687 99.0845 81.2094 99.0845C78.0501 99.0845 75.489 101.639 75.489 104.79C75.489 107.941 78.0501 110.496 81.2094 110.496Z" fill="white"/>
<path d="M62.9038 114.107C65.5365 114.107 67.6708 111.978 67.6708 109.352C67.6708 106.726 65.5365 104.597 62.9038 104.597C60.2711 104.597 58.1368 106.726 58.1368 109.352C58.1368 111.978 60.2711 114.107 62.9038 114.107Z" fill="white"/>
<path d="M46.6951 113.917C49.0119 113.917 50.89 112.044 50.89 109.733C50.89 107.422 49.0119 105.549 46.6951 105.549C44.3783 105.549 42.5001 107.422 42.5001 109.733C42.5001 112.044 44.3783 113.917 46.6951 113.917Z" fill="white"/>
<path d="M46.8816 127.042C49.5144 127.042 51.6486 124.914 51.6486 122.288C51.6486 119.662 49.5144 117.533 46.8816 117.533C44.2489 117.533 42.1146 119.662 42.1146 122.288C42.1146 124.914 44.2489 127.042 46.8816 127.042Z" fill="white"/>
<path d="M66.334 129.513C69.4933 129.513 72.0544 126.958 72.0544 123.807C72.0544 120.656 69.4933 118.102 66.334 118.102C63.1747 118.102 60.6136 120.656 60.6136 123.807C60.6136 126.958 63.1747 129.513 66.334 129.513Z" fill="white"/>
<path d="M89.0294 127.042C92.7153 127.042 95.7032 124.061 95.7032 120.385C95.7032 116.709 92.7153 113.729 89.0294 113.729C85.3436 113.729 82.3556 116.709 82.3556 120.385C82.3556 124.061 85.3436 127.042 89.0294 127.042Z" fill="white"/>
<path d="M102.372 143.588C106.584 143.588 109.999 140.182 109.999 135.98C109.999 131.779 106.584 128.373 102.372 128.373C98.1593 128.373 94.7445 131.779 94.7445 135.98C94.7445 140.182 98.1593 143.588 102.372 143.588Z" fill="white"/>
<path d="M74.342 145.871C78.0278 145.871 81.0158 142.891 81.0158 139.214C81.0158 135.538 78.0278 132.558 74.342 132.558C70.6562 132.558 67.6682 135.538 67.6682 139.214C67.6682 142.891 70.6562 145.871 74.342 145.871Z" fill="white"/>
<path d="M58.5174 158.802C62.2032 158.802 65.1912 155.822 65.1912 152.145C65.1912 148.469 62.2032 145.489 58.5174 145.489C54.8315 145.489 51.8436 148.469 51.8436 152.145C51.8436 155.822 54.8315 158.802 58.5174 158.802Z" fill="white"/>
<path d="M71.6717 175.541C75.8841 175.541 79.2989 172.135 79.2989 167.933C79.2989 163.731 75.8841 160.325 71.6717 160.325C67.4594 160.325 64.0445 163.731 64.0445 167.933C64.0445 172.135 67.4594 175.541 71.6717 175.541Z" fill="white"/>
<path d="M106.757 178.584C111.706 178.584 115.719 174.582 115.719 169.645C115.719 164.708 111.706 160.706 106.757 160.706C101.807 160.706 97.7948 164.708 97.7948 169.645C97.7948 174.582 101.807 178.584 106.757 178.584Z" fill="white"/>
<path d="M87.5012 162.605C91.7136 162.605 95.1284 159.199 95.1284 154.997C95.1284 150.796 91.7136 147.39 87.5012 147.39C83.2888 147.39 79.874 150.796 79.874 154.997C79.874 159.199 83.2888 162.605 87.5012 162.605Z" fill="white"/>
<path d="M121.444 159.564C126.394 159.564 130.406 155.562 130.406 150.626C130.406 145.689 126.394 141.687 121.444 141.687C116.495 141.687 112.482 145.689 112.482 150.626C112.482 155.562 116.495 159.564 121.444 159.564Z" fill="white"/>
<path d="M50.5094 142.449C53.6687 142.449 56.2298 139.894 56.2298 136.743C56.2298 133.592 53.6687 131.037 50.5094 131.037C47.3501 131.037 44.789 133.592 44.789 136.743C44.789 139.894 47.3501 142.449 50.5094 142.449Z" fill="white"/>
<path d="M379.147 129.141C394.187 129.141 402.121 119.667 402.121 107.825C402.121 97.8771 395.371 89.7058 386.963 88.4031C394.424 86.8636 400.582 80.2318 400.582 70.2841C400.582 59.7444 392.884 50.152 377.844 50.152H336.277V129.141H379.147ZM374.173 81.7713H353.094V64.5998H374.173C379.858 64.5998 383.41 68.2709 383.41 73.2448C383.41 78.2186 379.858 81.7713 374.173 81.7713ZM374.765 114.575H353.094V96.2191H374.765C381.397 96.2191 384.95 100.482 384.95 105.456C384.95 111.141 381.16 114.575 374.765 114.575Z" fill="white"/>
<path d="M476.857 129.141V114.338H443.462V50.152H426.645V129.141H476.857Z" fill="white"/>
<path d="M534.66 130.562C558.581 130.562 575.99 113.509 575.99 89.7058C575.99 65.9024 558.581 48.8493 534.66 48.8493C510.856 48.8493 493.448 65.9024 493.448 89.7058C493.448 113.509 510.856 130.562 534.66 130.562ZM534.66 115.641C520.094 115.641 510.738 104.39 510.738 89.7058C510.738 74.9027 520.094 63.7708 534.66 63.7708C549.226 63.7708 558.7 74.9027 558.7 89.7058C558.7 104.39 549.226 115.641 534.66 115.641Z" fill="white"/>
<path d="M637.884 130.681C652.214 130.681 663.464 124.759 671.517 115.759V85.4425H633.858V100.127H654.701V109.601C651.503 112.562 644.871 115.641 637.884 115.641C623.555 115.641 613.133 104.627 613.133 89.7058C613.133 74.7843 623.555 63.7708 637.884 63.7708C646.292 63.7708 653.043 68.5078 656.595 74.0737L670.569 66.4946C664.648 57.139 654.345 48.8493 637.884 48.8493C614.791 48.8493 595.844 64.7182 595.844 89.7058C595.844 114.575 614.791 130.681 637.884 130.681Z" fill="white"/>
<path d="M258.951 10.8154H263.886V168.715H258.951V10.8154Z" fill="white"/>
</svg>
